PathFileType	4	(X/Y/Z)	C:/Users/beibeiliu/ov580/test_trc/capture2\sequence.16_training_dense_right.trc
DataRate	CameraRate	NumFrames	NumMarkers	Units	OrigDataRate	OrigDataStartFrame	OrigNumFrames
120	120	8	19	mm	120	201	400
Frame#	Time	ThumbCMC			ThumbMCP			ThumbIP			ThumbTip			IndexMCP			IndexPIP			IndexTip			MiddleMCP			MiddlePIP			MiddleTip			RingMCP			RingPIP			RingTip			PinkyMCP			PinkyPIP			PinkyTip			BackHand1			BackHand2			BackHand3	
		X0	Y0	Z0	X1	Y1	Z1	X2	Y2	Z2	X3	Y3	Z3	X4	Y4	Z4	X5	Y5	Z5	X6	Y6	Z6	X7	Y7	Z7	X8	Y8	Z8	X9	Y9	Z9	X10	Y10	Z10	X11	Y11	Z11	X12	Y12	Z12	X13	Y13	Z13	X14	Y14	Z14	X15	Y15	Z15	X16	Y16	Z16	X17	Y17	Z17	X18	Y18	Z18	
200	1.66667	158.838	107.9	-31.8451	146.772	96.1243	-51.1226	124.68	92.0915	-70.4704	110.25	84.8793	-81.7632	123.759	148.867	-81.8259	111.519	158.569	-103.809	103.025	170.345	-123.168	153.852	154.562	-102.717	172.755	135.249	-116.099	185.904	121.152	-83.0859	174.121	159.577	-99.4799	193.055	133.882	-100.348	192.125	126.855	-65.9771	190.198	168.582	-91.7165	200.601	137.864	-89.5756	195.372	132.011	-59.1827	166.61	169.424	-42.8869	184.535	159.712	-13.1998	153.881	142.72	-27.7597	
201	1.675	159.349	103.003	-29.1577	144.066	92.7668	-52.3473	127.951	87.9828	-66.7881	111.861	81.7994	-81.3111	127.381	146.087	-82.568	116.131	157.442	-105.432	106.8	167.327	-124.971	158.289	151.899	-102.274	173.52	127.639	-116.768	186.243	114.807	-80.797	178.646	156.839	-97.9955	197.211	131.321	-102.027	192.332	119.552	-68.8139	193.077	163.446	-90.518	206.347	135.479	-91.2358	197.819	129.174	-59.0642	174.546	169.4	-44.9494	183.007	156.023	-16.2057	156.648	135.868	-27.6265	
202	1.68333	159.933	101.003	-32.1135	147.392	88.7969	-50.9467	126.529	83.838	-68.7812	112.626	80.771	-83.4653	127.979	143.29	-86.3826	120.405	152.746	-107.649	112.354	165.445	-127.81	159.033	144.397	-100.913	180.427	122.76	-116.154	187.386	107.698	-84.928	179.832	147.594	-100.464	199.023	121.788	-99.9094	196.755	114.271	-69.2171	198.322	156.517	-92.8003	206.5	127.714	-90.4906	201.448	122.45	-57.8112	176.532	164.182	-42.8978	188.967	153.187	-18.3902	159.28	134.584	-29.3689	
203	1.69167	157.148	94.573	-31.9224	145.489	82.3774	-48.8512	128.177	79.8591	-68.7723	111.766	73.8762	-82.1906	132.425	138.811	-88.6433	122.907	146.275	-107.978	113.603	159.641	-131.363	165.097	138.188	-106.206	183.136	115.485	-115.387	192.006	103.301	-80.9765	186.764	142.105	-100.476	201.536	112.621	-98.3783	198.711	108.825	-65.0715	200.366	146.015	-94.3974	208.23	119.204	-87.4173	202.731	114.835	-58.7517	178.591	157.91	-45.2636	192.526	147.927	-14.6562	158.35	131.018	-30.6541	
204	1.7	161.36	89.2653	-29.6528	147.806	79.4851	-50.466	127.112	73.7604	-66.6689	114.032	68.3776	-79.8305	137.099	135.924	-89.9621	126.434	141.392	-111.23	121.013	156.534	-133.702	170.116	132.232	-105.533	189.089	109.489	-114.638	192.545	92.9061	-81.2245	189.161	131.818	-102.416	206.976	105.52	-96.3435	198.212	98.7453	-64.9341	203.306	140.055	-91.9823	215.005	112.251	-85.0543	204.03	107.299	-57.3732	182.383	150.176	-46.2647	191.267	141.495	-17.9984	161.358	124.465	-30.932	
205	1.70833	160.137	84.5803	-29.9598	144.235	71.6118	-44.8211	126.997	68.3611	-64.1589	113.278	65.867	-80.9175	140.43	128.264	-91.8439	130.816	135.082	-114.088	126.363	145.524	-131.011	172.976	124.712	-102.298	190.779	100.683	-113.713	195.566	85.8657	-76.5782	194.67	124.428	-101.986	205.993	97.3906	-97.562	200.256	89.5613	-65.6953	204.778	131.939	-89.048	215.028	102.787	-84.8099	203.476	98.6017	-53.8132	184.818	146.927	-47.0196	189.942	133.23	-15.7203	162.332	120.971	-31.4151	
206	1.71667	157.908	80.3452	-28.3325	142.445	67.5887	-46.5873	123.872	63.044	-66.0074	111.29	59.3074	-79.5927	144.436	121.01	-92.1768	136.92	125.206	-113.918	132.708	137.502	-136.415	175.148	115.012	-101.935	194.169	88.9607	-112.13	195.891	73.8509	-76.2102	196.069	115.697	-97.861	209.526	84.2926	-91.6449	202.52	81.6962	-57.9306	208.984	120.215	-88.7357	213.726	90.1474	-80.8253	205.248	89.3326	-51.9004	184.271	135.991	-47.4845	193.608	128.589	-18.9836	165.089	114.48	-32.6982	
207	1.725	157.764	73.553	-24.7673	143.315	63.4291	-46.141	122.176	57.8845	-63.8551	110.601	53.1343	-77.0688	145.614	111.065	-93.3776	142.581	117.72	-115.99	139.662	125.118	-137.591	179.303	99.523	-105.038	194.881	75.1775	-108.784	193.842	62.1825	-71.3576	198.149	103.352	-95.6648	209.726	71.4842	-87.2199	203.519	69.9426	-57.6195	211.234	108.041	-86.2901	218.865	78.4645	-75.0068	204.872	80.4291	-48.0935	187.271	128.45	-47.4467	195.793	121.987	-14.4522	164.649	108.354	-29.3193	
